<svg xmlns="http://www.w3.org/2000/svg" xmlns:xlink="http://www.w3.org/1999/xlink" width="2000" zoomAndPan="magnify" viewBox="0 0 1500 1499.999933" height="2000" preserveAspectRatio="xMidYMid meet" version="1.0"><defs><clipPath id="cb9809be1b"><path d="M 653.027344 638.636719 L 846.976562 638.636719 L 846.976562 826.480469 L 653.027344 826.480469 Z M 653.027344 638.636719 " clip-rule="nonzero"/></clipPath><clipPath id="b8f2c82d4c"><path d="M 0.0273438 0.636719 L 193.976562 0.636719 L 193.976562 188.480469 L 0.0273438 188.480469 Z M 0.0273438 0.636719 " clip-rule="nonzero"/></clipPath><clipPath id="e9c02877eb"><rect x="0" width="194" y="0" height="189"/></clipPath><clipPath id="164d00712f"><path d="M 648.996094 150 L 846.976562 150 L 846.976562 616.167969 L 648.996094 616.167969 Z M 648.996094 150 " clip-rule="nonzero"/></clipPath><clipPath id="1319036c2c"><path d="M 0.996094 0 L 198.976562 0 L 198.976562 466.167969 L 0.996094 466.167969 Z M 0.996094 0 " clip-rule="nonzero"/></clipPath><clipPath id="bef6b70916"><rect x="0" width="199" y="0" height="467"/></clipPath><clipPath id="3c8fd7fb3f"><path d="M 861.707031 638.636719 L 1055.660156 638.636719 L 1055.660156 826.480469 L 861.707031 826.480469 Z M 861.707031 638.636719 " clip-rule="nonzero"/></clipPath><clipPath id="0e9880212b"><path d="M 0.707031 0.636719 L 194.660156 0.636719 L 194.660156 188.480469 L 0.707031 188.480469 Z M 0.707031 0.636719 " clip-rule="nonzero"/></clipPath><clipPath id="b195ba638a"><rect x="0" width="195" y="0" height="189"/></clipPath><clipPath id="9f85081257"><path d="M 440.117188 638.636719 L 634.066406 638.636719 L 634.066406 826.480469 L 440.117188 826.480469 Z M 440.117188 638.636719 " clip-rule="nonzero"/></clipPath><clipPath id="3e820c3124"><path d="M 0.117188 0.636719 L 194 0.636719 L 194 188.480469 L 0.117188 188.480469 Z M 0.117188 0.636719 " clip-rule="nonzero"/></clipPath><clipPath id="424253a1af"><rect x="0" width="195" y="0" height="189"/></clipPath><clipPath id="a34e0dc888"><path d="M 653.023438 848.953125 L 851 848.953125 L 851 1315.117188 L 653.023438 1315.117188 Z M 653.023438 848.953125 " clip-rule="nonzero"/></clipPath><clipPath id="44f28421fb"><path d="M 0.0234375 0.953125 L 198 0.953125 L 198 467.117188 L 0.0234375 467.117188 Z M 0.0234375 0.953125 " clip-rule="nonzero"/></clipPath><clipPath id="4f90014a03"><rect x="0" width="198" y="0" height="468"/></clipPath></defs><g clip-path="url(#cb9809be1b)"><g transform="matrix(1, 0, 0, 1, 653, 638)"><g clip-path="url(#e9c02877eb)"><g clip-path="url(#b8f2c82d4c)"><path fill="#000000" d="M 0.0273438 188.480469 L 0.0273438 0.636719 L 193.738281 0.636719 L 193.738281 188.480469 Z M 0.0273438 188.480469 " fill-opacity="1" fill-rule="nonzero"/></g></g></g></g><g clip-path="url(#164d00712f)"><g transform="matrix(1, 0, 0, 1, 648, 150)"><g clip-path="url(#bef6b70916)"><g clip-path="url(#1319036c2c)"><path fill="#000000" d="M 0.996094 0 L 198.976562 0 L 198.976562 466.328125 L 0.996094 466.328125 Z M 0.996094 0 " fill-opacity="1" fill-rule="nonzero"/></g></g></g></g><g clip-path="url(#3c8fd7fb3f)"><g transform="matrix(1, 0, 0, 1, 861, 638)"><g clip-path="url(#b195ba638a)"><g clip-path="url(#0e9880212b)"><path fill="#000000" d="M 0.707031 188.480469 L 0.707031 0.636719 L 194.421875 0.636719 L 194.421875 188.480469 Z M 0.707031 188.480469 " fill-opacity="1" fill-rule="nonzero"/></g></g></g></g><g clip-path="url(#9f85081257)"><g transform="matrix(1, 0, 0, 1, 440, 638)"><g clip-path="url(#424253a1af)"><g clip-path="url(#3e820c3124)"><path fill="#000000" d="M 0.117188 188.480469 L 0.117188 0.636719 L 193.832031 0.636719 L 193.832031 188.480469 Z M 0.117188 188.480469 " fill-opacity="1" fill-rule="nonzero"/></g></g></g></g><g clip-path="url(#a34e0dc888)"><g transform="matrix(1, 0, 0, 1, 653, 848)"><g clip-path="url(#4f90014a03)"><g clip-path="url(#44f28421fb)"><path fill="#000000" d="M 198 467.117188 L 0.0234375 467.117188 L 0.0234375 0.789062 L 198 0.789062 Z M 198 467.117188 " fill-opacity="1" fill-rule="nonzero"/></g></g></g></g></svg>