<svg xmlns="http://www.w3.org/2000/svg" xmlns:xlink="http://www.w3.org/1999/xlink" width="2000" zoomAndPan="magnify" viewBox="0 0 1500 1499.999933" height="2000" preserveAspectRatio="xMidYMid meet" version="1.0"><defs><clipPath id="08d6e0efae"><path d="M 652.917969 489.425781 L 846.867188 489.425781 L 846.867188 677.265625 L 652.917969 677.265625 Z M 652.917969 489.425781 " clip-rule="nonzero"/></clipPath><clipPath id="97a341a3e5"><path d="M 0.917969 0.425781 L 194.867188 0.425781 L 194.867188 188.265625 L 0.917969 188.265625 Z M 0.917969 0.425781 " clip-rule="nonzero"/></clipPath><clipPath id="90b4bb113d"><rect x="0" width="195" y="0" height="189"/></clipPath><clipPath id="c6ac4f00c7"><path d="M 0 1 L 197.976562 1 L 197.976562 467.167969 L 0 467.167969 Z M 0 1 " clip-rule="nonzero"/></clipPath><clipPath id="30c3cbebda"><path d="M 0 0 L 197.976562 0 L 197.976562 466.167969 L 0 466.167969 Z M 0 0 " clip-rule="nonzero"/></clipPath><clipPath id="d766335341"><rect x="0" width="198" y="0" height="467"/></clipPath><clipPath id="59445afd54"><path d="M 0.113281 0.785156 L 847.085938 0.785156 L 847.085938 109.75 L 0.113281 109.75 Z M 0.113281 0.785156 " clip-rule="nonzero"/></clipPath><clipPath id="731cc812bf"><path d="M 0.113281 0.785156 L 847.085938 0.785156 L 847.085938 109.75 L 0.113281 109.75 Z M 0.113281 0.785156 " clip-rule="nonzero"/></clipPath><clipPath id="061ab6db25"><rect x="0" width="848" y="0" height="110"/></clipPath><clipPath id="0d14f33c78"><path d="M 648.996094 1 L 846.976562 1 L 846.976562 467.167969 L 648.996094 467.167969 Z M 648.996094 1 " clip-rule="nonzero"/></clipPath><clipPath id="5751bf72b5"><path d="M 0.996094 0 L 198.976562 0 L 198.976562 466.167969 L 0.996094 466.167969 Z M 0.996094 0 " clip-rule="nonzero"/></clipPath><clipPath id="eca5400943"><rect x="0" width="199" y="0" height="467"/></clipPath><clipPath id="68df201344"><path d="M 861.601562 489.425781 L 1055.550781 489.425781 L 1055.550781 677.265625 L 861.601562 677.265625 Z M 861.601562 489.425781 " clip-rule="nonzero"/></clipPath><clipPath id="b4403107cf"><path d="M 0.601562 0.425781 L 194.550781 0.425781 L 194.550781 188.265625 L 0.601562 188.265625 Z M 0.601562 0.425781 " clip-rule="nonzero"/></clipPath><clipPath id="a23bfedf93"><rect x="0" width="195" y="0" height="189"/></clipPath><clipPath id="c3543b80aa"><path d="M 440.007812 489.425781 L 633.957031 489.425781 L 633.957031 677.265625 L 440.007812 677.265625 Z M 440.007812 489.425781 " clip-rule="nonzero"/></clipPath><clipPath id="eff901df84"><path d="M 0.0078125 0.425781 L 193.957031 0.425781 L 193.957031 188.265625 L 0.0078125 188.265625 Z M 0.0078125 0.425781 " clip-rule="nonzero"/></clipPath><clipPath id="1191bb69e3"><rect x="0" width="194" y="0" height="189"/></clipPath><clipPath id="cd78cc122c"><path d="M 1301.75 699.78125 L 1499.726562 699.78125 L 1499.726562 1165.949219 L 1301.75 1165.949219 Z M 1301.75 699.78125 " clip-rule="nonzero"/></clipPath><clipPath id="aa8493f849"><path d="M 0.75 0.78125 L 198.726562 0.78125 L 198.726562 466.949219 L 0.75 466.949219 Z M 0.75 0.78125 " clip-rule="nonzero"/></clipPath><clipPath id="1db70026b1"><rect x="0" width="199" y="0" height="467"/></clipPath><clipPath id="26c1662671"><path d="M 652.808594 1057.046875 L 1499.785156 1057.046875 L 1499.785156 1166.011719 L 652.808594 1166.011719 Z M 652.808594 1057.046875 " clip-rule="nonzero"/></clipPath><clipPath id="c72e8952e2"><path d="M 0.808594 0.046875 L 847.785156 0.046875 L 847.785156 109.011719 L 0.808594 109.011719 Z M 0.808594 0.046875 " clip-rule="nonzero"/></clipPath><clipPath id="e79f7f4a0f"><rect x="0" width="848" y="0" height="110"/></clipPath><clipPath id="0244942257"><path d="M 652.75 699.78125 L 850.726562 699.78125 L 850.726562 1165.949219 L 652.75 1165.949219 Z M 652.75 699.78125 " clip-rule="nonzero"/></clipPath><clipPath id="c556afc724"><path d="M 0.75 0.78125 L 198.726562 0.78125 L 198.726562 466.949219 L 0.75 466.949219 Z M 0.75 0.78125 " clip-rule="nonzero"/></clipPath><clipPath id="8ef1baa70c"><rect x="0" width="199" y="0" height="467"/></clipPath><clipPath id="2342056cc0"><rect x="0" width="1500" y="0" height="1167"/></clipPath></defs><g transform="matrix(1, 0, 0, 1, 0, 149)"><g clip-path="url(#2342056cc0)"><g clip-path="url(#08d6e0efae)"><g transform="matrix(1, 0, 0, 1, 652, 489)"><g clip-path="url(#90b4bb113d)"><g clip-path="url(#97a341a3e5)"><path fill="#000000" d="M 0.917969 188.265625 L 0.917969 0.425781 L 194.632812 0.425781 L 194.632812 188.265625 Z M 0.917969 188.265625 " fill-opacity="1" fill-rule="nonzero"/></g></g></g></g><g clip-path="url(#c6ac4f00c7)"><g transform="matrix(1, 0, 0, 1, 0, 1)"><g clip-path="url(#d766335341)"><g clip-path="url(#30c3cbebda)"><path fill="#000000" d="M 0 0 L 197.976562 0 L 197.976562 466.328125 L 0 466.328125 Z M 0 0 " fill-opacity="1" fill-rule="nonzero"/></g></g></g></g><g clip-path="url(#59445afd54)"><g transform="matrix(1, 0, 0, 1, 0, 0.000000000000113687)"><g clip-path="url(#061ab6db25)"><g clip-path="url(#731cc812bf)"><path fill="#000000" d="M 0.113281 109.75 L 0.113281 0.785156 L 847.140625 0.785156 L 847.140625 109.75 Z M 0.113281 109.75 " fill-opacity="1" fill-rule="nonzero"/></g></g></g></g><g clip-path="url(#0d14f33c78)"><g transform="matrix(1, 0, 0, 1, 648, 1)"><g clip-path="url(#eca5400943)"><g clip-path="url(#5751bf72b5)"><path fill="#000000" d="M 0.996094 0 L 198.976562 0 L 198.976562 466.328125 L 0.996094 466.328125 Z M 0.996094 0 " fill-opacity="1" fill-rule="nonzero"/></g></g></g></g><g clip-path="url(#68df201344)"><g transform="matrix(1, 0, 0, 1, 861, 489)"><g clip-path="url(#a23bfedf93)"><g clip-path="url(#b4403107cf)"><path fill="#000000" d="M 0.601562 188.265625 L 0.601562 0.425781 L 194.3125 0.425781 L 194.3125 188.265625 Z M 0.601562 188.265625 " fill-opacity="1" fill-rule="nonzero"/></g></g></g></g><g clip-path="url(#c3543b80aa)"><g transform="matrix(1, 0, 0, 1, 440, 489)"><g clip-path="url(#1191bb69e3)"><g clip-path="url(#eff901df84)"><path fill="#000000" d="M 0.0078125 188.265625 L 0.0078125 0.425781 L 193.722656 0.425781 L 193.722656 188.265625 Z M 0.0078125 188.265625 " fill-opacity="1" fill-rule="nonzero"/></g></g></g></g><g clip-path="url(#cd78cc122c)"><g transform="matrix(1, 0, 0, 1, 1301, 699)"><g clip-path="url(#1db70026b1)"><g clip-path="url(#aa8493f849)"><path fill="#000000" d="M 198.726562 466.949219 L 0.75 466.949219 L 0.75 0.617188 L 198.726562 0.617188 Z M 198.726562 466.949219 " fill-opacity="1" fill-rule="nonzero"/></g></g></g></g><g clip-path="url(#26c1662671)"><g transform="matrix(1, 0, 0, 1, 652, 1057)"><g clip-path="url(#e79f7f4a0f)"><g clip-path="url(#c72e8952e2)"><path fill="#000000" d="M 847.785156 0.046875 L 847.785156 109.011719 L 0.753906 109.011719 L 0.753906 0.046875 Z M 847.785156 0.046875 " fill-opacity="1" fill-rule="nonzero"/></g></g></g></g><g clip-path="url(#0244942257)"><g transform="matrix(1, 0, 0, 1, 652, 699)"><g clip-path="url(#8ef1baa70c)"><g clip-path="url(#c556afc724)"><path fill="#000000" d="M 198.726562 466.949219 L 0.75 466.949219 L 0.75 0.617188 L 198.726562 0.617188 Z M 198.726562 466.949219 " fill-opacity="1" fill-rule="nonzero"/></g></g></g></g></g></g></svg>